# xmcd
#
# Track frame offsets:
#	150
#	14021
#	29800
#	44840
#	56885
#	76696
#	93264
#	108153
#	125566
#	143343
#	162366
#	181362
#	198267
#	217133
#	235141
#	252234
#	268262
#	282822
#	300123
#	314791
#	331830
#
# Disc length: 4695 seconds
# Revision: 0
# Processed by: cddbd v1.5.2PL0 Copyright (c) Steve Scherf et al.
# Submitted via: dBpowerAMP V12.0
#
DISCID=32125515
DTITLE=Various Artist - 42 ultimate hits
DYEAR=2004
DGENRE=Country
TTITLE0=Kenny Rogers and Dottie West - What are we doin' in love
TTITLE1=Kenny Rogers - I don't need you
TTITLE2=Kenny Rogers - Share your love with me
TTITLE3=Kenny Rogers - Blaze of glory
TTITLE4=Kenny Rogers - Through the years
TTITLE5=Kenny Rogers - Love will turn you around
TTITLE6=Kenny Rogers - A love song
TTITLE7=Kenny Rogers and Sheena Easton - We've got tonight
TTITLE8=Kenny Rogers - Scarlet fever
TTITLE9=Kenny Rogers and Dolly Parton - Islands in the stream
TTITLE10=Kenny Rogers - Buried treasure
TTITLE11=Kenny Rogers - Crazy
TTITLE12=Kenny Rogers - Morning desire
TTITLE13=Kenny Rogers and Ronnie Milsap - Make no mistake, she's mine
TTITLE14=Kenny Rogers - Twenty years ago
TTITLE15=Kenny Rogers - The vows go unbroken
TTITLE16=Kenny Rogers - The greatest
TTITLE17=Kenny Rogers and Alison Krauss and Billy Dean - Buy me a rose
TTITLE18=Kenny Rogers - It's a beautiful life
TTITLE19=Kenny Rogers and Whitney Duncan - My world is over
TTITLE20=Kenny Rogers - We are the same
EXTD=
EXTT0=
EXTT1=
EXTT2=
EXTT3=
EXTT4=
EXTT5=
EXTT6=
EXTT7=
EXTT8=
EXTT9=
EXTT10=
EXTT11=
EXTT12=
EXTT13=
EXTT14=
EXTT15=
EXTT16=
EXTT17=
EXTT18=
EXTT19=
EXTT20=
PLAYORDER=
